<svg xmlns="http://www.w3.org/2000/svg" viewBox="0 0 1600 700" width="1600" height="700" role="img" aria-label="بانر">
  <defs>
    <linearGradient id="hb3" x1="0" y1="0" x2="1" y2="1">
      <stop offset="0%" stop-color="#33403F"/>
      <stop offset="100%" stop-color="#1C2524"/>
    </linearGradient>
    <linearGradient id="hg3" x1="0" y1="0" x2="0" y2="1">
      <stop offset="0%" stop-color="#E0C173"/>
      <stop offset="100%" stop-color="#C59B27"/>
    </linearGradient>
    <pattern id="hp3" width="60" height="60" patternUnits="userSpaceOnUse" patternTransform="rotate(45)">
      <path d="M0 30h60M30 0v60" stroke="#C59B27" stroke-opacity="0.1" stroke-width="2"/>
    </pattern>
  </defs>
  <rect width="1600" height="700" fill="url(#hb3)"/>
  <rect width="1600" height="700" fill="url(#hp3)"/>
  <g opacity=".92">
      <circle cx="400" cy="260" r="90" fill="none" stroke="url(#hg3)" stroke-width="14"/>
      <circle cx="400" cy="260" r="70" fill="#4C5C5A"/>
      <rect x="640" y="330" width="620" height="150" rx="20" fill="#5E706E"/>
      <rect x="700" y="380" width="180" height="14" rx="7" fill="url(#hg3)"/>
      <rect x="1000" y="380" width="180" height="14" rx="7" fill="url(#hg3)"/>
      <path d="M1400 480c-70-90 20-160 0-210-18 50 70 120 0 210z" fill="#6E8A72"/>
      <rect x="1370" y="480" width="60" height="90" rx="10" fill="#4C5C5A"/>
      <rect x="0" y="600" width="1600" height="100" fill="#16201F"/>
    </g>
</svg>
