<svg xmlns="http://www.w3.org/2000/svg" viewBox="0 0 800 600" width="800" height="600" role="img" aria-label="صورة توضيحية">
  <defs>
    <linearGradient id="bglv" x1="0" y1="0" x2="1" y2="1">
      <stop offset="0%" stop-color="#EDE8DF"/>
      <stop offset="100%" stop-color="#CFC3B0"/>
    </linearGradient>
    <linearGradient id="goldlv" x1="0" y1="0" x2="0" y2="1">
      <stop offset="0%" stop-color="#E0C173"/>
      <stop offset="100%" stop-color="#C59B27"/>
    </linearGradient>
    <pattern id="patlv" width="46" height="46" patternUnits="userSpaceOnUse" patternTransform="rotate(45)">
      <rect width="46" height="46" fill="none"/>
      <path d="M0 23h46M23 0v46" stroke="#C59B27" stroke-opacity="0.12" stroke-width="1.5"/>
    </pattern>
  </defs>
  <rect width="800" height="600" fill="url(#bglv)"/>
  <rect width="800" height="600" fill="url(#patlv)"/>
  <g>
      <rect x="140" y="250" width="520" height="120" rx="20" fill="#F7F3EA" stroke="#C59B27" stroke-opacity=".45" stroke-width="3"/>
      <rect x="170" y="290" width="140" height="90" rx="14" fill="#FFFFFF" stroke="#D6CBB8" stroke-width="3"/>
      <rect x="330" y="290" width="140" height="90" rx="14" fill="#FFFFFF" stroke="#D6CBB8" stroke-width="3"/>
      <rect x="490" y="290" width="140" height="90" rx="14" fill="#FFFFFF" stroke="#D6CBB8" stroke-width="3"/>
      <rect x="120" y="270" width="40" height="130" rx="14" fill="#E3DACA"/>
      <rect x="640" y="270" width="40" height="130" rx="14" fill="#E3DACA"/>
      <rect x="160" y="400" width="24" height="46" rx="6" fill="#8C7752"/>
      <rect x="616" y="400" width="24" height="46" rx="6" fill="#8C7752"/>
      <ellipse cx="400" cy="480" rx="110" ry="26" fill="#D9CFBC"/>
      <rect x="392" y="480" width="16" height="50" rx="6" fill="#8C7752"/>
    </g>
  <rect x="14" y="14" width="772" height="572" rx="10" fill="none" stroke="#C59B27" stroke-opacity="0.35" stroke-width="2"/>
</svg>
