<svg xmlns="http://www.w3.org/2000/svg" viewBox="0 0 800 600" width="800" height="600" role="img" aria-label="صورة توضيحية">
  <defs>
    <linearGradient id="bgwd" x1="0" y1="0" x2="1" y2="1">
      <stop offset="0%" stop-color="#EAE3D8"/>
      <stop offset="100%" stop-color="#C2B49C"/>
    </linearGradient>
    <linearGradient id="goldwd" x1="0" y1="0" x2="0" y2="1">
      <stop offset="0%" stop-color="#E0C173"/>
      <stop offset="100%" stop-color="#C59B27"/>
    </linearGradient>
    <pattern id="patwd" width="46" height="46" patternUnits="userSpaceOnUse" patternTransform="rotate(45)">
      <rect width="46" height="46" fill="none"/>
      <path d="M0 23h46M23 0v46" stroke="#C59B27" stroke-opacity="0.12" stroke-width="1.5"/>
    </pattern>
  </defs>
  <rect width="800" height="600" fill="url(#bgwd)"/>
  <rect width="800" height="600" fill="url(#patwd)"/>
  <g>
      <rect x="230" y="120" width="340" height="400" rx="10" fill="#F6F1E7" stroke="#B49E77" stroke-width="4"/>
      <line x1="400" y1="120" x2="400" y2="520" stroke="#B49E77" stroke-width="4"/>
      <line x1="315" y1="120" x2="315" y2="520" stroke="#D5C7AC" stroke-width="2"/>
      <line x1="485" y1="120" x2="485" y2="520" stroke="#D5C7AC" stroke-width="2"/>
      <rect x="380" y="300" width="10" height="60" rx="5" fill="url(#goldwd)"/>
      <rect x="410" y="300" width="10" height="60" rx="5" fill="url(#goldwd)"/>
      <rect x="230" y="120" width="340" height="26" rx="6" fill="url(#goldwd)" opacity=".45"/>
      <rect x="245" y="520" width="26" height="34" rx="6" fill="#8C7752"/>
      <rect x="529" y="520" width="26" height="34" rx="6" fill="#8C7752"/>
    </g>
  <rect x="14" y="14" width="772" height="572" rx="10" fill="none" stroke="#C59B27" stroke-opacity="0.35" stroke-width="2"/>
</svg>
